# xmcd CD database file
#
# Track frame offsets:
#	150
#	27174
#	47879
#	70235
#	91089
#	114175
#	136425
#	160903
#	175619
#	202062
#	230019
#	251226
#	267334
#	283063
#	306172
#	329608
#
# Disc length: 4701 seconds
#
# Revision: 0
# Processed by: cddbd v1.5PL3 Copyright (c) Steve Scherf et al.
# Submitted via: CDex 1.50
#
DISCID=eb125b10
DTITLE=Bill Evans - Spring Leaves
DYEAR=1961
DGENRE=Jazz
TTITLE0=Autumn Leaves
TTITLE1=Witchcraft
TTITLE2=When I Fall In Love
TTITLE3=What Is This Thing Called Love?
TTITLE4=Spring Is Here
TTITLE5=Some Day My Prince Will Come
TTITLE6=Blue In Green
TTITLE7=Perl's Scoope
TTITLE8=Nardis
TTITLE9=Israel
TTITLE10=I Wish I Knew
TTITLE11=How Deep Is The Ocean?
TTITLE12=Haunted Heart
TTITLE13=Beautiful Love
TTITLE14=Elsa
TTITLE15=The Boy Next Door
EXTD=YEAR: 1961
EXTT0=
EXTT1=
EXTT2=
EXTT3=
EXTT4=
EXTT5=
EXTT6=
EXTT7=
EXTT8=
EXTT9=
EXTT10=
EXTT11=
EXTT12=
EXTT13=
EXTT14=
EXTT15=
PLAYORDER=
